<svg xmlns="http://www.w3.org/2000/svg" xmlns:xlink="http://www.w3.org/1999/xlink" viewBox="0 0 468 66"><defs><style>.a{fill:none;}.b{clip-path:url(#a);}.c{fill:#b7b6b7;}.d{fill:#1c75bc;}</style><clipPath id="a" transform="translate(-0.2 -0.4)"><rect class="a" x="0.2" y="0.4" width="467.8" height="66"/></clipPath></defs><g class="b"><path class="c" d="M50.87,5.62q6.18,5.06,6.18,16.76V64.29H40.18V26.43a17.17,17.17,0,0,0-1.32-7.53q-2.4-4.8-9.17-4.8-8.32,0-11.42,7a24.09,24.09,0,0,0-1.6,9.48V64.29H.2V2.17h16v9.08a27.68,27.68,0,0,1,6-6.91Q27.2.58,35,.57q9.72,0,15.91,5.05" transform="translate(-0.2 -0.4)"/><path class="c" d="M109.64,3.32a25.48,25.48,0,0,1,10.89,9.2,30.46,30.46,0,0,1,5,12.87,79.18,79.18,0,0,1,.54,12.35H80.22q.39,9.36,6.59,13.13a16.87,16.87,0,0,0,9.08,2.34A14.07,14.07,0,0,0,105,50.36a13.71,13.71,0,0,0,3.39-4.29h16.81q-.66,5.55-6.11,11.25-8.46,9.07-23.69,9.08a34.56,34.56,0,0,1-22.18-7.66q-9.61-7.65-9.61-24.91,0-16.17,8.67-24.8T94.83.4a36.12,36.12,0,0,1,14.81,2.92M85,17.37A16.81,16.81,0,0,0,80.62,27H109q-.45-6.48-4.38-9.84a14.58,14.58,0,0,0-9.77-3.35q-6.34,0-9.83,3.55" transform="translate(-0.2 -0.4)"/><polygon class="c" points="162.29 1.66 178.99 1.66 188.58 46.47 198.4 1.66 215.56 1.66 197.3 63.89 180.37 63.89 170.49 18.55 160.5 63.89 143.4 63.89 125.72 1.66 143.4 1.66 153.22 46.3 162.29 1.66"/><polygon class="d" points="234.96 1.66 251.65 1.66 261.24 46.48 271.07 1.66 288.23 1.66 269.97 63.89 253.04 63.89 243.16 18.56 233.16 63.89 216.06 63.89 198.38 1.66 216.06 1.66 225.88 46.3 234.96 1.66"/><path class="d" d="M316.53,26.43A26.4,26.4,0,0,0,323.1,25q3.56-1.49,3.55-4.63,0-3.82-2.72-5.28c-1.82-1-4.48-1.45-8-1.45q-5.91,0-8.37,2.85a11.71,11.71,0,0,0-2.34,5.71H289.33q.53-8.16,4.64-13.42Q300.52.57,316.48.57a40.47,40.47,0,0,1,18.46,4.06Q343,8.68,343,19.93V48.47q0,3,.12,7.2a8.93,8.93,0,0,0,1,4.34,5.86,5.86,0,0,0,2.43,1.88v2.4H328.62a18,18,0,0,1-1-3.54c-.2-1.11-.35-2.36-.47-3.77a33.67,33.67,0,0,1-7.9,6.22,24.06,24.06,0,0,1-12.09,3q-8.6,0-14.21-4.83t-5.6-13.67q0-11.48,9-16.61,4.95-2.81,14.55-4ZM326.59,34a18.11,18.11,0,0,1-3.19,1.57A27,27,0,0,1,319,36.71l-3.75.69a25.1,25.1,0,0,0-7.57,2.22,7.43,7.43,0,0,0-3.89,6.91q0,4.17,2.38,6a9.13,9.13,0,0,0,5.78,1.85,17.37,17.37,0,0,0,9.94-3.08q4.54-3.09,4.72-11.25Z" transform="translate(-0.2 -0.4)"/><polygon class="d" points="389.4 1.66 407.08 1.66 384.34 63.89 366.98 63.89 344.39 1.66 362.88 1.66 376 47.56 389.4 1.66"/><path class="d" d="M451.74,3.32a25.51,25.51,0,0,1,10.88,9.2,30.46,30.46,0,0,1,5,12.87,79.18,79.18,0,0,1,.54,12.35H422.31q.39,9.36,6.59,13.13A16.87,16.87,0,0,0,438,53.21a14.05,14.05,0,0,0,9.14-2.85,13.78,13.78,0,0,0,3.39-4.28h16.81q-.66,5.54-6.1,11.24-8.46,9.07-23.7,9.08a34.56,34.56,0,0,1-22.18-7.66q-9.61-7.65-9.61-24.91,0-16.17,8.68-24.8T436.93.4a36.12,36.12,0,0,1,14.81,2.92M427.1,17.37A16.87,16.87,0,0,0,422.72,27h28.37q-.45-6.48-4.39-9.84a14.58,14.58,0,0,0-9.77-3.35q-6.33,0-9.83,3.55" transform="translate(-0.2 -0.4)"/></g></svg>